<?xml version="1.0" encoding="utf-8"?>
<!-- Generator: Adobe Illustrator 24.1.1, SVG Export Plug-In . SVG Version: 6.00 Build 0)  -->
<svg version="1.1" id="Layer_1" xmlns="http://www.w3.org/2000/svg" xmlns:xlink="http://www.w3.org/1999/xlink" x="0px" y="0px"
	 viewBox="0 0 512 512" style="enable-background:new 0 0 512 512;" xml:space="preserve">
<g>
	<path d="M256,0c-31.9,0-58.7,20.6-69.3,46.3c-3.8,9.6-5.6,19.8-5.1,30.2c-7-7.6-15.5-13.7-24.9-17.8c-9.9-4.1-20.6-5.9-31.2-5.5
		c-19,0.6-37,8.3-50.5,21.8c-22.6,22.6-26.9,56-16.3,81.7c3.8,9.2,10,17.4,17.4,24.6c-10.2-0.3-20.4,1.6-29.8,5.4
		C20.6,197.3,0,224.1,0,256s20.6,58.7,46.3,69.3c9.2,3.9,19.7,5.3,30.2,5.1c-7.7,7.2-13.9,15.6-17.8,24.9
		C48.1,381,52.4,414.4,75,437c22.6,22.6,56,26.9,81.7,16.3c9.2-3.8,17.7-10.1,24.9-17.8c-0.3,10.5,1.1,20.9,5.1,30.2
		c10.6,25.7,37.3,46.3,69.3,46.3s58.7-20.6,69.3-46.3c3.8-9.6,5.6-19.8,5.1-30.2c7.3,7.6,15.6,13.9,24.9,17.8
		c25.7,10.7,59.2,6.3,81.7-16.3c22.6-22.6,26.9-56,16.3-81.7c-4.1-9.4-10.2-17.9-17.8-24.9c10.3,0.5,20.6-1.2,30.2-5.1
		c25.7-10.6,46.3-37.3,46.3-69.3s-20.6-58.7-46.3-69.3c-9.6-3.8-19.8-5.5-30.2-5.1c7.7-7.2,13.9-15.6,17.8-24.9
		C463.9,131,459.6,97.6,437,75c-13.5-13.4-31.5-21.2-50.5-21.8c-10.7-0.4-21.3,1.4-31.2,5.5c-9.2,3.8-17.7,10.1-24.9,17.8
		c0.5-10.3-1.2-20.6-5.1-30.2C314.7,20.6,287.9,0,256,0L256,0z M255.2,34.4c36.5-0.8,55.4,43.3,29.6,69.3v83.1l58.7-58.8
		c0-36.2,43.7-54.3,69.3-28.7c25.6,25.5,7.5,69.3-28.7,69.3l-58.8,58.7h83.1c25.6-25.5,69.3-7.4,69.3,28.8
		c0,36.2-43.7,54.3-69.3,28.8h-83.1l58.8,58.7c36.2,0,54.3,43.7,28.7,69.3c-25.5,25.6-69.3,7.5-69.3-28.7l-58.7-58.8v83.1
		c25.5,25.6,7.4,69.3-28.8,69.3s-54.3-43.7-28.8-69.3v-83.1L168.6,384c0,36.2-43.7,54.3-69.3,28.7c-25.6-25.5-7.5-69.3,28.7-69.3
		l58.8-58.7h-83.1c-25.6,25.5-69.3,7.4-69.3-28.8c0-36.2,43.7-54.3,69.3-28.8h83.1L128,168.6c-36.2,0-54.3-43.7-28.7-69.3
		c25.5-25.6,69.3-7.5,69.3,28.7l58.7,58.8v-83.1C202,78.4,219.4,35.2,255.2,34.4z"/>
</g>
</svg>
